# xmcd
#
# Track frame offsets: 
#        150
#        23145
#        41631
#        59145
#        80427
#        95439
#        117451
#        137001
#        159627
#        178334
#        199722
#        218099
#        238391
#        254848
#        276457
#
# Disc length: 3972 seconds
#
# Revision: 0
# Processed by: cddbd v1.5.2PL0 Copyright (c) Steve Scherf et al.
# Submitted via: ExactAudioCopy v0.95a5
#
DISCID=ee0f820f
DTITLE=晓花 - 花开声音
DYEAR=2011
DGENRE=Pop
TTITLE0=绽放
TTITLE1=只要有你
TTITLE2=一千年以后
TTITLE3=无所谓
TTITLE4=一千零一夜
TTITLE5=没那么简单
TTITLE6=寂寞在唱歌
TTITLE7=暗香
TTITLE8=我不后悔
TTITLE9=比我幸福
TTITLE10=吻别
TTITLE11=青青菩提树
TTITLE12=一首简单的歌
TTITLE13=天路
TTITLE14=神话
EXTD=
EXTT0=
EXTT1=
EXTT2=
EXTT3=
EXTT4=
EXTT5=
EXTT6=
EXTT7=
EXTT8=
EXTT9=
EXTT10=
EXTT11=
EXTT12=
EXTT13=
EXTT14=
PLAYORDER=
